<svg xmlns="http://www.w3.org/2000/svg" xmlns:xlink="http://www.w3.org/1999/xlink" viewBox="0 0 32 32" width="36" height="36" style="" filter="none">
    
    <g>
    <path d="M27.4 22.2c0 3-2.4 5.4-5.4 5.4h-12c-3 0-5.4-2.4-5.4-5.4v-12.2c0-3 2.4-5.4 5.4-5.4h12c3 0 5.4 2.4 5.4 5.4v12.2zM22 2h-12c-4.4 0-8 3.6-8 8.2v11.8c0 4.4 3.6 8.2 8 8.2h12c4.4 0 8-3.6 8-8.2v-11.8c0-4.6-3.6-8.2-8-8.2z" fill="rgba(255,255,255,1)"></path><path d="M16 20.8c-2.6 0-4.8-2.2-4.8-4.8s2.2-4.8 4.8-4.8 4.8 2.2 4.8 4.8c0 2.8-2.2 4.8-4.8 4.8zM16 8.8c-4 0-7.2 3.2-7.2 7.4s3.2 7.2 7.2 7.2 7.2-3.2 7.2-7.2-3.2-7.4-7.2-7.4zM23.6 6.8c-1 0-1.6 0.8-1.6 1.6s0.8 1.6 1.6 1.6c1 0 1.6-0.8 1.6-1.6s-0.8-1.6-1.6-1.6z" fill="rgba(255,255,255,1)"></path>
    </g>
  </svg>