<svg xmlns="http://www.w3.org/2000/svg" xmlns:xlink="http://www.w3.org/1999/xlink" viewBox="0 0 32 32" width="36" height="36" style="" filter="none">
    
    <g>
    <path d="M28.8 10.4v0.8c0 8.8-6.6 18.8-18.8 18.8-3.8 0-7.2-1-10-3h1.6c3 0 5.8-1 8.2-2.8-2.8 0-5.2-2-6.2-4.6 0.4 0 0.8 0.2 1.2 0.2 0.6 0 1.2 0 1.8-0.2-3-0.6-5.4-3.2-5.4-6.4 1 0.4 2 0.8 3 0.8-1.8-1.2-2.8-3.2-2.8-5.4 0-1.2 0.4-2.4 0.8-3.4 3.2 4 8 6.6 13.6 6.8-0.2-0.4-0.2-1-0.2-1.4 0-3.6 3-6.6 6.6-6.6 1.8 0 3.6 0.8 4.8 2 1.4-0.2 3-0.8 4.2-1.6-0.4 1.6-1.6 2.8-2.8 3.6 1.2 0 2.4-0.4 3.6-1-0.8 1.4-2 2.6-3.2 3.4z" fill="rgba(255,255,255,1)"></path>
    </g>
  </svg>