<svg xmlns="http://www.w3.org/2000/svg" xmlns:xlink="http://www.w3.org/1999/xlink" viewBox="0 0 32 32" width="36" height="36" style="" filter="none">
    
    <g>
    <path d="M15.8 12c0.8 0 1.4-0.4 1.8-1 0.4-0.2 0.6-1 0.6-2v-3c0-1-0.2-1.6-0.4-2-0.6-0.8-1.2-1-2-1s-1.4 0.4-1.8 1c-0.4 0.4-0.6 1-0.6 2v3.2c0 1 0.2 1.6 0.6 2.2 0.4 0.4 1 0.6 1.8 0.6zM15 5.6c0-0.8 0.2-1.2 0.8-1.2s0.8 0.4 0.8 1.2v3.8c0 0.8-0.2 1.2-0.8 1.2s-0.8-0.4-0.8-1.2v-3.8zM19.6 11.4c0-0.2-0.2-0.6-0.2-1.4v-7h1.6v7.2c0 0.2 0.2 0.4 0.4 0.4 0.4 0 0.6-0.2 1-0.8v-6.8h1.6v9h-1.6v-1c-0.6 0.8-1.2 1-1.8 1-0.4 0-0.8-0.2-1-0.6zM25.8 22.2v0.8h-1.6v-0.8c0-0.8 0.2-1.2 0.8-1.2s0.8 0.4 0.8 1.2zM8.4 3.4c-0.4-1.2-0.8-2.2-1.2-3.4h1.8l1.2 4.6 1.4-4.6h1.8l-2.2 7.2v4.8h-1.8v-4.8c-0.2-1-0.6-2.2-1-3.8zM28.8 16.6c-0.2-1.4-1.4-2.6-2.8-2.6-3.2-0.4-6.6-0.4-10-0.4s-6.6 0-9.8 0.4c-1.4 0-2.6 1.2-2.8 2.6-0.4 2-0.4 4.2-0.4 6.2s0 4.2 0.4 6.2c0.4 1.4 1.4 2.4 2.8 2.6 3.2 0.4 6.6 0.4 10 0.4s6.6 0 10-0.4c1.4-0.2 2.6-1.2 2.8-2.6 0.4-2 0.4-4.2 0.4-6.2s0-4.2-0.6-6.2zM10.4 18.4h-2v10.2h-1.6v-10.2h-2v-1.8h5.6v1.8zM15.2 28.6h-1.6v-1c-0.6 0.8-1.2 1-1.8 1s-0.8-0.2-1-0.6c0-0.2-0.2-0.6-0.2-1.4v-7h1.6v7c0 0.2 0.2 0.4 0.4 0.4 0.4 0 0.6-0.2 1-0.8v-6.6h1.6v9zM21.4 25.8c0 0.8 0 1.4-0.2 1.8-0.2 0.6-0.6 1-1.2 1s-1.2-0.4-1.6-1v0.8h-1.8v-11.8h1.6v3.8c0.6-0.6 1-1 1.6-1s1 0.4 1.2 1c0.2 0.4 0.2 1 0.2 1.8v3.6zM27.4 24.4h-3.2v1.6c0 0.8 0.2 1.2 0.8 1.2 0.4 0 0.6-0.2 0.8-0.6v-1h1.6v1.2c0 0.4-0.2 0.6-0.4 1-0.4 0.6-1 1-2 1-0.8 0-1.4-0.4-2-1-0.4-0.4-0.6-1.2-0.6-2v-3c0-1 0.2-1.6 0.6-2 0.4-0.6 1-1 2-1 0.8 0 1.4 0.4 1.8 1 0.4 0.4 0.4 1.2 0.4 2l0.2 1.6zM19.8 22.2v3.8c0 0.8-0.2 1.2-0.6 1.2-0.2 0-0.6-0.2-0.8-0.4v-5.4c0.2-0.2 0.6-0.4 0.8-0.4s0.6 0.4 0.6 1.2z" fill="rgba(255,255,255,1)"></path>
    </g>
  </svg>