<svg xmlns="http://www.w3.org/2000/svg" xmlns:xlink="http://www.w3.org/1999/xlink" viewBox="0 0 32 32" width="36" height="36" style="" filter="none">
    
    <g>
    <path d="M20.196 3.556c1.695 0 3.154 1.196 3.486 2.858l1.206 6.031 4.118 1.373c0.726 0.242 1.216 0.921 1.216 1.687v9.385c0 0.982-0.796 1.778-1.778 1.778h-7.111v-1.778h7.111v-9.385l-5.096-1.699-1.408-7.042c-0.166-0.831-0.896-1.429-1.743-1.429h-14.863v-1.778h14.863zM14.222 16c0.491 0 0.889 0.398 0.889 0.889s-0.398 0.889-0.889 0.889h-10.667c-0.491 0-0.889-0.398-0.889-0.889s0.398-0.889 0.889-0.889h10.667zM14.222 10.667c0.491 0 0.889 0.398 0.889 0.889s-0.398 0.889-0.889 0.889h-10.667c-0.491 0-0.889-0.398-0.889-0.889s0.398-0.889 0.889-0.889h10.667zM5.319 5.333c-0.484-0.008-0.874-0.403-0.874-0.889 0-0.491 0.398-0.889 0.889-0.889h14.863c1.695 0 3.154 1.196 3.486 2.858l1.206 6.031 4.118 1.373c0.726 0.242 1.216 0.921 1.216 1.687v9.385c0 0.982-0.796 1.778-1.778 1.778h-7.111v-1.778h7.111v-9.385l-5.096-1.699-1.408-7.042c-0.166-0.831-0.896-1.429-1.743-1.429h-14.863z" fill="rgba(255,255,255,1)"></path><path d="M19.556 27.556c0.982 0 1.778-0.796 1.778-1.778s-0.796-1.778-1.778-1.778c-0.982 0-1.778 0.796-1.778 1.778s0.796 1.778 1.778 1.778zM19.556 29.333c-1.964 0-3.556-1.592-3.556-3.556s1.592-3.556 3.556-3.556 3.556 1.592 3.556 3.556c0 1.964-1.592 3.556-3.556 3.556zM7.111 27.556c0.982 0 1.778-0.796 1.778-1.778s-0.796-1.778-1.778-1.778c-0.982 0-1.778 0.796-1.778 1.778s0.796 1.778 1.778 1.778zM7.111 29.333c-1.964 0-3.556-1.592-3.556-3.556s1.592-3.556 3.556-3.556 3.556 1.592 3.556 3.556c0 1.964-1.592 3.556-3.556 3.556z" fill="rgba(255,255,255,1)"></path><path d="M8.889 26.667v-1.778h8.889v1.778z" fill="rgba(255,255,255,1)"></path>
    </g>
  </svg>